<?xml version="1.0" encoding="utf-8" standalone="no"?>
<!DOCTYPE svg PUBLIC "-//W3C//DTD SVG 1.1//EN"
  "http://www.w3.org/Graphics/SVG/1.1/DTD/svg11.dtd">
<svg xmlns:xlink="http://www.w3.org/1999/xlink" width="576pt" height="288pt" viewBox="0 0 576 288" xmlns="http://www.w3.org/2000/svg" version="1.1">
 <metadata>
  <rdf:RDF xmlns:dc="http://purl.org/dc/elements/1.1/" xmlns:cc="http://creativecommons.org/ns#" xmlns:rdf="http://www.w3.org/1999/02/22-rdf-syntax-ns#">
   <cc:Work>
    <dc:type rdf:resource="http://purl.org/dc/dcmitype/StillImage"/>
    <dc:date>2023-04-02T17:17:40.849980</dc:date>
    <dc:format>image/svg+xml</dc:format>
    <dc:creator>
     <cc:Agent>
      <dc:title>Matplotlib v3.5.3, https://matplotlib.org/</dc:title>
     </cc:Agent>
    </dc:creator>
   </cc:Work>
  </rdf:RDF>
 </metadata>
 <defs>
  <style type="text/css">*{stroke-linejoin: round; stroke-linecap: butt}</style>
 </defs>
 <g id="figure_1">
  <g id="patch_1">
   <path d="M 0 288 
L 576 288 
L 576 0 
L 0 0 
z
" style="fill: #ffffff"/>
  </g>
  <g id="axes_1">
   <g id="patch_2">
    <path d="M 63.86 237.6 
L 418.585 237.6 
L 418.585 27.6 
L 63.86 27.6 
z
" style="fill: #ffffff"/>
   </g>
   <g id="matplotlib.axis_1">
    <g id="xtick_1">
     <g id="line2d_1">
      <defs>
       <path id="m3fc6e432b7" d="M 0 0 
L 0 3.5 
" style="stroke: #000000; stroke-width: 0.8"/>
      </defs>
      <g>
       <use xlink:href="#m3fc6e432b7" x="78.520141" y="237.6" style="stroke: #000000; stroke-width: 0.8"/>
      </g>
     </g>
     <g id="text_1">
      <!-- $\mathdefault{10^{-4}}$ -->
      <g transform="translate(62.070141 255.237813)scale(0.14 -0.14)">
       <defs>
        <path id="DejaVuSans-31" d="M 794 531 
L 1825 531 
L 1825 4091 
L 703 3866 
L 703 4441 
L 1819 4666 
L 2450 4666 
L 2450 531 
L 3481 531 
L 3481 0 
L 794 0 
L 794 531 
z
" transform="scale(0.015625)"/>
        <path id="DejaVuSans-30" d="M 2034 4250 
Q 1547 4250 1301 3770 
Q 1056 3291 1056 2328 
Q 1056 1369 1301 889 
Q 1547 409 2034 409 
Q 2525 409 2770 889 
Q 3016 1369 3016 2328 
Q 3016 3291 2770 3770 
Q 2525 4250 2034 4250 
z
M 2034 4750 
Q 2819 4750 3233 4129 
Q 3647 3509 3647 2328 
Q 3647 1150 3233 529 
Q 2819 -91 2034 -91 
Q 1250 -91 836 529 
Q 422 1150 422 2328 
Q 422 3509 836 4129 
Q 1250 4750 2034 4750 
z
" transform="scale(0.015625)"/>
        <path id="DejaVuSans-2212" d="M 678 2272 
L 4684 2272 
L 4684 1741 
L 678 1741 
L 678 2272 
z
" transform="scale(0.015625)"/>
        <path id="DejaVuSans-34" d="M 2419 4116 
L 825 1625 
L 2419 1625 
L 2419 4116 
z
M 2253 4666 
L 3047 4666 
L 3047 1625 
L 3713 1625 
L 3713 1100 
L 3047 1100 
L 3047 0 
L 2419 0 
L 2419 1100 
L 313 1100 
L 313 1709 
L 2253 4666 
z
" transform="scale(0.015625)"/>
       </defs>
       <use xlink:href="#DejaVuSans-31" transform="translate(0 0.684375)"/>
       <use xlink:href="#DejaVuSans-30" transform="translate(63.623047 0.684375)"/>
       <use xlink:href="#DejaVuSans-2212" transform="translate(128.203125 38.965625)scale(0.7)"/>
       <use xlink:href="#DejaVuSans-34" transform="translate(186.855469 38.965625)scale(0.7)"/>
      </g>
     </g>
    </g>
    <g id="xtick_2">
     <g id="line2d_2">
      <g>
       <use xlink:href="#m3fc6e432b7" x="144.601835" y="237.6" style="stroke: #000000; stroke-width: 0.8"/>
      </g>
     </g>
     <g id="text_2">
      <!-- $\mathdefault{10^{-3}}$ -->
      <g transform="translate(128.151835 255.237813)scale(0.14 -0.14)">
       <defs>
        <path id="DejaVuSans-33" d="M 2597 2516 
Q 3050 2419 3304 2112 
Q 3559 1806 3559 1356 
Q 3559 666 3084 287 
Q 2609 -91 1734 -91 
Q 1441 -91 1130 -33 
Q 819 25 488 141 
L 488 750 
Q 750 597 1062 519 
Q 1375 441 1716 441 
Q 2309 441 2620 675 
Q 2931 909 2931 1356 
Q 2931 1769 2642 2001 
Q 2353 2234 1838 2234 
L 1294 2234 
L 1294 2753 
L 1863 2753 
Q 2328 2753 2575 2939 
Q 2822 3125 2822 3475 
Q 2822 3834 2567 4026 
Q 2313 4219 1838 4219 
Q 1578 4219 1281 4162 
Q 984 4106 628 3988 
L 628 4550 
Q 988 4650 1302 4700 
Q 1616 4750 1894 4750 
Q 2613 4750 3031 4423 
Q 3450 4097 3450 3541 
Q 3450 3153 3228 2886 
Q 3006 2619 2597 2516 
z
" transform="scale(0.015625)"/>
       </defs>
       <use xlink:href="#DejaVuSans-31" transform="translate(0 0.765625)"/>
       <use xlink:href="#DejaVuSans-30" transform="translate(63.623047 0.765625)"/>
       <use xlink:href="#DejaVuSans-2212" transform="translate(128.203125 39.046875)scale(0.7)"/>
       <use xlink:href="#DejaVuSans-33" transform="translate(186.855469 39.046875)scale(0.7)"/>
      </g>
     </g>
    </g>
    <g id="xtick_3">
     <g id="line2d_3">
      <g>
       <use xlink:href="#m3fc6e432b7" x="210.683529" y="237.6" style="stroke: #000000; stroke-width: 0.8"/>
      </g>
     </g>
     <g id="text_3">
      <!-- $\mathdefault{10^{-2}}$ -->
      <g transform="translate(194.233529 255.237813)scale(0.14 -0.14)">
       <defs>
        <path id="DejaVuSans-32" d="M 1228 531 
L 3431 531 
L 3431 0 
L 469 0 
L 469 531 
Q 828 903 1448 1529 
Q 2069 2156 2228 2338 
Q 2531 2678 2651 2914 
Q 2772 3150 2772 3378 
Q 2772 3750 2511 3984 
Q 2250 4219 1831 4219 
Q 1534 4219 1204 4116 
Q 875 4013 500 3803 
L 500 4441 
Q 881 4594 1212 4672 
Q 1544 4750 1819 4750 
Q 2544 4750 2975 4387 
Q 3406 4025 3406 3419 
Q 3406 3131 3298 2873 
Q 3191 2616 2906 2266 
Q 2828 2175 2409 1742 
Q 1991 1309 1228 531 
z
" transform="scale(0.015625)"/>
       </defs>
       <use xlink:href="#DejaVuSans-31" transform="translate(0 0.765625)"/>
       <use xlink:href="#DejaVuSans-30" transform="translate(63.623047 0.765625)"/>
       <use xlink:href="#DejaVuSans-2212" transform="translate(128.203125 39.046875)scale(0.7)"/>
       <use xlink:href="#DejaVuSans-32" transform="translate(186.855469 39.046875)scale(0.7)"/>
      </g>
     </g>
    </g>
    <g id="xtick_4">
     <g id="line2d_4">
      <g>
       <use xlink:href="#m3fc6e432b7" x="276.765224" y="237.6" style="stroke: #000000; stroke-width: 0.8"/>
      </g>
     </g>
     <g id="text_4">
      <!-- $\mathdefault{10^{-1}}$ -->
      <g transform="translate(260.315224 255.237813)scale(0.14 -0.14)">
       <use xlink:href="#DejaVuSans-31" transform="translate(0 0.684375)"/>
       <use xlink:href="#DejaVuSans-30" transform="translate(63.623047 0.684375)"/>
       <use xlink:href="#DejaVuSans-2212" transform="translate(128.203125 38.965625)scale(0.7)"/>
       <use xlink:href="#DejaVuSans-31" transform="translate(186.855469 38.965625)scale(0.7)"/>
      </g>
     </g>
    </g>
    <g id="xtick_5">
     <g id="line2d_5">
      <g>
       <use xlink:href="#m3fc6e432b7" x="342.846918" y="237.6" style="stroke: #000000; stroke-width: 0.8"/>
      </g>
     </g>
     <g id="text_5">
      <!-- $\mathdefault{10^{0}}$ -->
      <g transform="translate(330.526918 255.237813)scale(0.14 -0.14)">
       <use xlink:href="#DejaVuSans-31" transform="translate(0 0.765625)"/>
       <use xlink:href="#DejaVuSans-30" transform="translate(63.623047 0.765625)"/>
       <use xlink:href="#DejaVuSans-30" transform="translate(128.203125 39.046875)scale(0.7)"/>
      </g>
     </g>
    </g>
    <g id="xtick_6">
     <g id="line2d_6">
      <g>
       <use xlink:href="#m3fc6e432b7" x="408.928612" y="237.6" style="stroke: #000000; stroke-width: 0.8"/>
      </g>
     </g>
     <g id="text_6">
      <!-- $\mathdefault{10^{1}}$ -->
      <g transform="translate(396.608612 255.237813)scale(0.14 -0.14)">
       <use xlink:href="#DejaVuSans-31" transform="translate(0 0.684375)"/>
       <use xlink:href="#DejaVuSans-30" transform="translate(63.623047 0.684375)"/>
       <use xlink:href="#DejaVuSans-31" transform="translate(128.203125 38.965625)scale(0.7)"/>
      </g>
     </g>
    </g>
    <g id="xtick_7">
     <g id="line2d_7">
      <defs>
       <path id="m0ba783077d" d="M 0 0 
L 0 2 
" style="stroke: #000000; stroke-width: 0.6"/>
      </defs>
      <g>
       <use xlink:href="#m0ba783077d" x="63.86" y="237.6" style="stroke: #000000; stroke-width: 0.6"/>
      </g>
     </g>
    </g>
    <g id="xtick_8">
     <g id="line2d_8">
      <g>
       <use xlink:href="#m0ba783077d" x="68.283957" y="237.6" style="stroke: #000000; stroke-width: 0.6"/>
      </g>
     </g>
    </g>
    <g id="xtick_9">
     <g id="line2d_9">
      <g>
       <use xlink:href="#m0ba783077d" x="72.116163" y="237.6" style="stroke: #000000; stroke-width: 0.6"/>
      </g>
     </g>
    </g>
    <g id="xtick_10">
     <g id="line2d_10">
      <g>
       <use xlink:href="#m0ba783077d" x="75.496409" y="237.6" style="stroke: #000000; stroke-width: 0.6"/>
      </g>
     </g>
    </g>
    <g id="xtick_11">
     <g id="line2d_11">
      <g>
       <use xlink:href="#m0ba783077d" x="98.412713" y="237.6" style="stroke: #000000; stroke-width: 0.6"/>
      </g>
     </g>
    </g>
    <g id="xtick_12">
     <g id="line2d_12">
      <g>
       <use xlink:href="#m0ba783077d" x="110.049122" y="237.6" style="stroke: #000000; stroke-width: 0.6"/>
      </g>
     </g>
    </g>
    <g id="xtick_13">
     <g id="line2d_13">
      <g>
       <use xlink:href="#m0ba783077d" x="118.305285" y="237.6" style="stroke: #000000; stroke-width: 0.6"/>
      </g>
     </g>
    </g>
    <g id="xtick_14">
     <g id="line2d_14">
      <g>
       <use xlink:href="#m0ba783077d" x="124.709263" y="237.6" style="stroke: #000000; stroke-width: 0.6"/>
      </g>
     </g>
    </g>
    <g id="xtick_15">
     <g id="line2d_15">
      <g>
       <use xlink:href="#m0ba783077d" x="129.941694" y="237.6" style="stroke: #000000; stroke-width: 0.6"/>
      </g>
     </g>
    </g>
    <g id="xtick_16">
     <g id="line2d_16">
      <g>
       <use xlink:href="#m0ba783077d" x="134.365651" y="237.6" style="stroke: #000000; stroke-width: 0.6"/>
      </g>
     </g>
    </g>
    <g id="xtick_17">
     <g id="line2d_17">
      <g>
       <use xlink:href="#m0ba783077d" x="138.197858" y="237.6" style="stroke: #000000; stroke-width: 0.6"/>
      </g>
     </g>
    </g>
    <g id="xtick_18">
     <g id="line2d_18">
      <g>
       <use xlink:href="#m0ba783077d" x="141.578103" y="237.6" style="stroke: #000000; stroke-width: 0.6"/>
      </g>
     </g>
    </g>
    <g id="xtick_19">
     <g id="line2d_19">
      <g>
       <use xlink:href="#m0ba783077d" x="164.494407" y="237.6" style="stroke: #000000; stroke-width: 0.6"/>
      </g>
     </g>
    </g>
    <g id="xtick_20">
     <g id="line2d_20">
      <g>
       <use xlink:href="#m0ba783077d" x="176.130816" y="237.6" style="stroke: #000000; stroke-width: 0.6"/>
      </g>
     </g>
    </g>
    <g id="xtick_21">
     <g id="line2d_21">
      <g>
       <use xlink:href="#m0ba783077d" x="184.38698" y="237.6" style="stroke: #000000; stroke-width: 0.6"/>
      </g>
     </g>
    </g>
    <g id="xtick_22">
     <g id="line2d_22">
      <g>
       <use xlink:href="#m0ba783077d" x="190.790957" y="237.6" style="stroke: #000000; stroke-width: 0.6"/>
      </g>
     </g>
    </g>
    <g id="xtick_23">
     <g id="line2d_23">
      <g>
       <use xlink:href="#m0ba783077d" x="196.023388" y="237.6" style="stroke: #000000; stroke-width: 0.6"/>
      </g>
     </g>
    </g>
    <g id="xtick_24">
     <g id="line2d_24">
      <g>
       <use xlink:href="#m0ba783077d" x="200.447346" y="237.6" style="stroke: #000000; stroke-width: 0.6"/>
      </g>
     </g>
    </g>
    <g id="xtick_25">
     <g id="line2d_25">
      <g>
       <use xlink:href="#m0ba783077d" x="204.279552" y="237.6" style="stroke: #000000; stroke-width: 0.6"/>
      </g>
     </g>
    </g>
    <g id="xtick_26">
     <g id="line2d_26">
      <g>
       <use xlink:href="#m0ba783077d" x="207.659797" y="237.6" style="stroke: #000000; stroke-width: 0.6"/>
      </g>
     </g>
    </g>
    <g id="xtick_27">
     <g id="line2d_27">
      <g>
       <use xlink:href="#m0ba783077d" x="230.576102" y="237.6" style="stroke: #000000; stroke-width: 0.6"/>
      </g>
     </g>
    </g>
    <g id="xtick_28">
     <g id="line2d_28">
      <g>
       <use xlink:href="#m0ba783077d" x="242.21251" y="237.6" style="stroke: #000000; stroke-width: 0.6"/>
      </g>
     </g>
    </g>
    <g id="xtick_29">
     <g id="line2d_29">
      <g>
       <use xlink:href="#m0ba783077d" x="250.468674" y="237.6" style="stroke: #000000; stroke-width: 0.6"/>
      </g>
     </g>
    </g>
    <g id="xtick_30">
     <g id="line2d_30">
      <g>
       <use xlink:href="#m0ba783077d" x="256.872651" y="237.6" style="stroke: #000000; stroke-width: 0.6"/>
      </g>
     </g>
    </g>
    <g id="xtick_31">
     <g id="line2d_31">
      <g>
       <use xlink:href="#m0ba783077d" x="262.105082" y="237.6" style="stroke: #000000; stroke-width: 0.6"/>
      </g>
     </g>
    </g>
    <g id="xtick_32">
     <g id="line2d_32">
      <g>
       <use xlink:href="#m0ba783077d" x="266.52904" y="237.6" style="stroke: #000000; stroke-width: 0.6"/>
      </g>
     </g>
    </g>
    <g id="xtick_33">
     <g id="line2d_33">
      <g>
       <use xlink:href="#m0ba783077d" x="270.361246" y="237.6" style="stroke: #000000; stroke-width: 0.6"/>
      </g>
     </g>
    </g>
    <g id="xtick_34">
     <g id="line2d_34">
      <g>
       <use xlink:href="#m0ba783077d" x="273.741491" y="237.6" style="stroke: #000000; stroke-width: 0.6"/>
      </g>
     </g>
    </g>
    <g id="xtick_35">
     <g id="line2d_35">
      <g>
       <use xlink:href="#m0ba783077d" x="296.657796" y="237.6" style="stroke: #000000; stroke-width: 0.6"/>
      </g>
     </g>
    </g>
    <g id="xtick_36">
     <g id="line2d_36">
      <g>
       <use xlink:href="#m0ba783077d" x="308.294204" y="237.6" style="stroke: #000000; stroke-width: 0.6"/>
      </g>
     </g>
    </g>
    <g id="xtick_37">
     <g id="line2d_37">
      <g>
       <use xlink:href="#m0ba783077d" x="316.550368" y="237.6" style="stroke: #000000; stroke-width: 0.6"/>
      </g>
     </g>
    </g>
    <g id="xtick_38">
     <g id="line2d_38">
      <g>
       <use xlink:href="#m0ba783077d" x="322.954346" y="237.6" style="stroke: #000000; stroke-width: 0.6"/>
      </g>
     </g>
    </g>
    <g id="xtick_39">
     <g id="line2d_39">
      <g>
       <use xlink:href="#m0ba783077d" x="328.186777" y="237.6" style="stroke: #000000; stroke-width: 0.6"/>
      </g>
     </g>
    </g>
    <g id="xtick_40">
     <g id="line2d_40">
      <g>
       <use xlink:href="#m0ba783077d" x="332.610734" y="237.6" style="stroke: #000000; stroke-width: 0.6"/>
      </g>
     </g>
    </g>
    <g id="xtick_41">
     <g id="line2d_41">
      <g>
       <use xlink:href="#m0ba783077d" x="336.44294" y="237.6" style="stroke: #000000; stroke-width: 0.6"/>
      </g>
     </g>
    </g>
    <g id="xtick_42">
     <g id="line2d_42">
      <g>
       <use xlink:href="#m0ba783077d" x="339.823185" y="237.6" style="stroke: #000000; stroke-width: 0.6"/>
      </g>
     </g>
    </g>
    <g id="xtick_43">
     <g id="line2d_43">
      <g>
       <use xlink:href="#m0ba783077d" x="362.73949" y="237.6" style="stroke: #000000; stroke-width: 0.6"/>
      </g>
     </g>
    </g>
    <g id="xtick_44">
     <g id="line2d_44">
      <g>
       <use xlink:href="#m0ba783077d" x="374.375899" y="237.6" style="stroke: #000000; stroke-width: 0.6"/>
      </g>
     </g>
    </g>
    <g id="xtick_45">
     <g id="line2d_45">
      <g>
       <use xlink:href="#m0ba783077d" x="382.632062" y="237.6" style="stroke: #000000; stroke-width: 0.6"/>
      </g>
     </g>
    </g>
    <g id="xtick_46">
     <g id="line2d_46">
      <g>
       <use xlink:href="#m0ba783077d" x="389.03604" y="237.6" style="stroke: #000000; stroke-width: 0.6"/>
      </g>
     </g>
    </g>
    <g id="xtick_47">
     <g id="line2d_47">
      <g>
       <use xlink:href="#m0ba783077d" x="394.268471" y="237.6" style="stroke: #000000; stroke-width: 0.6"/>
      </g>
     </g>
    </g>
    <g id="xtick_48">
     <g id="line2d_48">
      <g>
       <use xlink:href="#m0ba783077d" x="398.692428" y="237.6" style="stroke: #000000; stroke-width: 0.6"/>
      </g>
     </g>
    </g>
    <g id="xtick_49">
     <g id="line2d_49">
      <g>
       <use xlink:href="#m0ba783077d" x="402.524634" y="237.6" style="stroke: #000000; stroke-width: 0.6"/>
      </g>
     </g>
    </g>
    <g id="xtick_50">
     <g id="line2d_50">
      <g>
       <use xlink:href="#m0ba783077d" x="405.904879" y="237.6" style="stroke: #000000; stroke-width: 0.6"/>
      </g>
     </g>
    </g>
    <g id="text_7">
     <!-- FMC63 (ug/mL) -->
     <g transform="translate(187.717344 273.787188)scale(0.14 -0.14)">
      <defs>
       <path id="DejaVuSans-46" d="M 628 4666 
L 3309 4666 
L 3309 4134 
L 1259 4134 
L 1259 2759 
L 3109 2759 
L 3109 2228 
L 1259 2228 
L 1259 0 
L 628 0 
L 628 4666 
z
" transform="scale(0.015625)"/>
       <path id="DejaVuSans-4d" d="M 628 4666 
L 1569 4666 
L 2759 1491 
L 3956 4666 
L 4897 4666 
L 4897 0 
L 4281 0 
L 4281 4097 
L 3078 897 
L 2444 897 
L 1241 4097 
L 1241 0 
L 628 0 
L 628 4666 
z
" transform="scale(0.015625)"/>
       <path id="DejaVuSans-43" d="M 4122 4306 
L 4122 3641 
Q 3803 3938 3442 4084 
Q 3081 4231 2675 4231 
Q 1875 4231 1450 3742 
Q 1025 3253 1025 2328 
Q 1025 1406 1450 917 
Q 1875 428 2675 428 
Q 3081 428 3442 575 
Q 3803 722 4122 1019 
L 4122 359 
Q 3791 134 3420 21 
Q 3050 -91 2638 -91 
Q 1578 -91 968 557 
Q 359 1206 359 2328 
Q 359 3453 968 4101 
Q 1578 4750 2638 4750 
Q 3056 4750 3426 4639 
Q 3797 4528 4122 4306 
z
" transform="scale(0.015625)"/>
       <path id="DejaVuSans-36" d="M 2113 2584 
Q 1688 2584 1439 2293 
Q 1191 2003 1191 1497 
Q 1191 994 1439 701 
Q 1688 409 2113 409 
Q 2538 409 2786 701 
Q 3034 994 3034 1497 
Q 3034 2003 2786 2293 
Q 2538 2584 2113 2584 
z
M 3366 4563 
L 3366 3988 
Q 3128 4100 2886 4159 
Q 2644 4219 2406 4219 
Q 1781 4219 1451 3797 
Q 1122 3375 1075 2522 
Q 1259 2794 1537 2939 
Q 1816 3084 2150 3084 
Q 2853 3084 3261 2657 
Q 3669 2231 3669 1497 
Q 3669 778 3244 343 
Q 2819 -91 2113 -91 
Q 1303 -91 875 529 
Q 447 1150 447 2328 
Q 447 3434 972 4092 
Q 1497 4750 2381 4750 
Q 2619 4750 2861 4703 
Q 3103 4656 3366 4563 
z
" transform="scale(0.015625)"/>
       <path id="DejaVuSans-20" transform="scale(0.015625)"/>
       <path id="DejaVuSans-28" d="M 1984 4856 
Q 1566 4138 1362 3434 
Q 1159 2731 1159 2009 
Q 1159 1288 1364 580 
Q 1569 -128 1984 -844 
L 1484 -844 
Q 1016 -109 783 600 
Q 550 1309 550 2009 
Q 550 2706 781 3412 
Q 1013 4119 1484 4856 
L 1984 4856 
z
" transform="scale(0.015625)"/>
       <path id="DejaVuSans-75" d="M 544 1381 
L 544 3500 
L 1119 3500 
L 1119 1403 
Q 1119 906 1312 657 
Q 1506 409 1894 409 
Q 2359 409 2629 706 
Q 2900 1003 2900 1516 
L 2900 3500 
L 3475 3500 
L 3475 0 
L 2900 0 
L 2900 538 
Q 2691 219 2414 64 
Q 2138 -91 1772 -91 
Q 1169 -91 856 284 
Q 544 659 544 1381 
z
M 1991 3584 
L 1991 3584 
z
" transform="scale(0.015625)"/>
       <path id="DejaVuSans-67" d="M 2906 1791 
Q 2906 2416 2648 2759 
Q 2391 3103 1925 3103 
Q 1463 3103 1205 2759 
Q 947 2416 947 1791 
Q 947 1169 1205 825 
Q 1463 481 1925 481 
Q 2391 481 2648 825 
Q 2906 1169 2906 1791 
z
M 3481 434 
Q 3481 -459 3084 -895 
Q 2688 -1331 1869 -1331 
Q 1566 -1331 1297 -1286 
Q 1028 -1241 775 -1147 
L 775 -588 
Q 1028 -725 1275 -790 
Q 1522 -856 1778 -856 
Q 2344 -856 2625 -561 
Q 2906 -266 2906 331 
L 2906 616 
Q 2728 306 2450 153 
Q 2172 0 1784 0 
Q 1141 0 747 490 
Q 353 981 353 1791 
Q 353 2603 747 3093 
Q 1141 3584 1784 3584 
Q 2172 3584 2450 3431 
Q 2728 3278 2906 2969 
L 2906 3500 
L 3481 3500 
L 3481 434 
z
" transform="scale(0.015625)"/>
       <path id="DejaVuSans-2f" d="M 1625 4666 
L 2156 4666 
L 531 -594 
L 0 -594 
L 1625 4666 
z
" transform="scale(0.015625)"/>
       <path id="DejaVuSans-6d" d="M 3328 2828 
Q 3544 3216 3844 3400 
Q 4144 3584 4550 3584 
Q 5097 3584 5394 3201 
Q 5691 2819 5691 2113 
L 5691 0 
L 5113 0 
L 5113 2094 
Q 5113 2597 4934 2840 
Q 4756 3084 4391 3084 
Q 3944 3084 3684 2787 
Q 3425 2491 3425 1978 
L 3425 0 
L 2847 0 
L 2847 2094 
Q 2847 2600 2669 2842 
Q 2491 3084 2119 3084 
Q 1678 3084 1418 2786 
Q 1159 2488 1159 1978 
L 1159 0 
L 581 0 
L 581 3500 
L 1159 3500 
L 1159 2956 
Q 1356 3278 1631 3431 
Q 1906 3584 2284 3584 
Q 2666 3584 2933 3390 
Q 3200 3197 3328 2828 
z
" transform="scale(0.015625)"/>
       <path id="DejaVuSans-4c" d="M 628 4666 
L 1259 4666 
L 1259 531 
L 3531 531 
L 3531 0 
L 628 0 
L 628 4666 
z
" transform="scale(0.015625)"/>
       <path id="DejaVuSans-29" d="M 513 4856 
L 1013 4856 
Q 1481 4119 1714 3412 
Q 1947 2706 1947 2009 
Q 1947 1309 1714 600 
Q 1481 -109 1013 -844 
L 513 -844 
Q 928 -128 1133 580 
Q 1338 1288 1338 2009 
Q 1338 2731 1133 3434 
Q 928 4138 513 4856 
z
" transform="scale(0.015625)"/>
      </defs>
      <use xlink:href="#DejaVuSans-46"/>
      <use xlink:href="#DejaVuSans-4d" x="57.519531"/>
      <use xlink:href="#DejaVuSans-43" x="143.798828"/>
      <use xlink:href="#DejaVuSans-36" x="213.623047"/>
      <use xlink:href="#DejaVuSans-33" x="277.246094"/>
      <use xlink:href="#DejaVuSans-20" x="340.869141"/>
      <use xlink:href="#DejaVuSans-28" x="372.65625"/>
      <use xlink:href="#DejaVuSans-75" x="411.669922"/>
      <use xlink:href="#DejaVuSans-67" x="475.048828"/>
      <use xlink:href="#DejaVuSans-2f" x="538.525391"/>
      <use xlink:href="#DejaVuSans-6d" x="572.216797"/>
      <use xlink:href="#DejaVuSans-4c" x="669.628906"/>
      <use xlink:href="#DejaVuSans-29" x="725.341797"/>
     </g>
    </g>
   </g>
   <g id="matplotlib.axis_2">
    <g id="ytick_1">
     <g id="line2d_51">
      <defs>
       <path id="m1fc9035620" d="M 0 0 
L -3.5 0 
" style="stroke: #000000; stroke-width: 0.8"/>
      </defs>
      <g>
       <use xlink:href="#m1fc9035620" x="63.86" y="220.1" style="stroke: #000000; stroke-width: 0.8"/>
      </g>
     </g>
     <g id="text_8">
      <!-- 0.0 -->
      <g transform="translate(34.595625 225.418906)scale(0.14 -0.14)">
       <defs>
        <path id="DejaVuSans-2e" d="M 684 794 
L 1344 794 
L 1344 0 
L 684 0 
L 684 794 
z
" transform="scale(0.015625)"/>
       </defs>
       <use xlink:href="#DejaVuSans-30"/>
       <use xlink:href="#DejaVuSans-2e" x="63.623047"/>
       <use xlink:href="#DejaVuSans-30" x="95.410156"/>
      </g>
     </g>
    </g>
    <g id="ytick_2">
     <g id="line2d_52">
      <g>
       <use xlink:href="#m1fc9035620" x="63.86" y="185.1" style="stroke: #000000; stroke-width: 0.8"/>
      </g>
     </g>
     <g id="text_9">
      <!-- 0.2 -->
      <g transform="translate(34.595625 190.418906)scale(0.14 -0.14)">
       <use xlink:href="#DejaVuSans-30"/>
       <use xlink:href="#DejaVuSans-2e" x="63.623047"/>
       <use xlink:href="#DejaVuSans-32" x="95.410156"/>
      </g>
     </g>
    </g>
    <g id="ytick_3">
     <g id="line2d_53">
      <g>
       <use xlink:href="#m1fc9035620" x="63.86" y="150.1" style="stroke: #000000; stroke-width: 0.8"/>
      </g>
     </g>
     <g id="text_10">
      <!-- 0.4 -->
      <g transform="translate(34.595625 155.418906)scale(0.14 -0.14)">
       <use xlink:href="#DejaVuSans-30"/>
       <use xlink:href="#DejaVuSans-2e" x="63.623047"/>
       <use xlink:href="#DejaVuSans-34" x="95.410156"/>
      </g>
     </g>
    </g>
    <g id="ytick_4">
     <g id="line2d_54">
      <g>
       <use xlink:href="#m1fc9035620" x="63.86" y="115.1" style="stroke: #000000; stroke-width: 0.8"/>
      </g>
     </g>
     <g id="text_11">
      <!-- 0.6 -->
      <g transform="translate(34.595625 120.418906)scale(0.14 -0.14)">
       <use xlink:href="#DejaVuSans-30"/>
       <use xlink:href="#DejaVuSans-2e" x="63.623047"/>
       <use xlink:href="#DejaVuSans-36" x="95.410156"/>
      </g>
     </g>
    </g>
    <g id="ytick_5">
     <g id="line2d_55">
      <g>
       <use xlink:href="#m1fc9035620" x="63.86" y="80.1" style="stroke: #000000; stroke-width: 0.8"/>
      </g>
     </g>
     <g id="text_12">
      <!-- 0.8 -->
      <g transform="translate(34.595625 85.418906)scale(0.14 -0.14)">
       <defs>
        <path id="DejaVuSans-38" d="M 2034 2216 
Q 1584 2216 1326 1975 
Q 1069 1734 1069 1313 
Q 1069 891 1326 650 
Q 1584 409 2034 409 
Q 2484 409 2743 651 
Q 3003 894 3003 1313 
Q 3003 1734 2745 1975 
Q 2488 2216 2034 2216 
z
M 1403 2484 
Q 997 2584 770 2862 
Q 544 3141 544 3541 
Q 544 4100 942 4425 
Q 1341 4750 2034 4750 
Q 2731 4750 3128 4425 
Q 3525 4100 3525 3541 
Q 3525 3141 3298 2862 
Q 3072 2584 2669 2484 
Q 3125 2378 3379 2068 
Q 3634 1759 3634 1313 
Q 3634 634 3220 271 
Q 2806 -91 2034 -91 
Q 1263 -91 848 271 
Q 434 634 434 1313 
Q 434 1759 690 2068 
Q 947 2378 1403 2484 
z
M 1172 3481 
Q 1172 3119 1398 2916 
Q 1625 2713 2034 2713 
Q 2441 2713 2670 2916 
Q 2900 3119 2900 3481 
Q 2900 3844 2670 4047 
Q 2441 4250 2034 4250 
Q 1625 4250 1398 4047 
Q 1172 3844 1172 3481 
z
" transform="scale(0.015625)"/>
       </defs>
       <use xlink:href="#DejaVuSans-30"/>
       <use xlink:href="#DejaVuSans-2e" x="63.623047"/>
       <use xlink:href="#DejaVuSans-38" x="95.410156"/>
      </g>
     </g>
    </g>
    <g id="ytick_6">
     <g id="line2d_56">
      <g>
       <use xlink:href="#m1fc9035620" x="63.86" y="45.1" style="stroke: #000000; stroke-width: 0.8"/>
      </g>
     </g>
     <g id="text_13">
      <!-- 1.0 -->
      <g transform="translate(34.595625 50.418906)scale(0.14 -0.14)">
       <use xlink:href="#DejaVuSans-31"/>
       <use xlink:href="#DejaVuSans-2e" x="63.623047"/>
       <use xlink:href="#DejaVuSans-30" x="95.410156"/>
      </g>
     </g>
    </g>
    <g id="text_14">
     <!-- Fraction of Maximal Signal -->
     <g transform="translate(21.684062 224.937656)rotate(-90)scale(0.14 -0.14)">
      <defs>
       <path id="DejaVuSans-72" d="M 2631 2963 
Q 2534 3019 2420 3045 
Q 2306 3072 2169 3072 
Q 1681 3072 1420 2755 
Q 1159 2438 1159 1844 
L 1159 0 
L 581 0 
L 581 3500 
L 1159 3500 
L 1159 2956 
Q 1341 3275 1631 3429 
Q 1922 3584 2338 3584 
Q 2397 3584 2469 3576 
Q 2541 3569 2628 3553 
L 2631 2963 
z
" transform="scale(0.015625)"/>
       <path id="DejaVuSans-61" d="M 2194 1759 
Q 1497 1759 1228 1600 
Q 959 1441 959 1056 
Q 959 750 1161 570 
Q 1363 391 1709 391 
Q 2188 391 2477 730 
Q 2766 1069 2766 1631 
L 2766 1759 
L 2194 1759 
z
M 3341 1997 
L 3341 0 
L 2766 0 
L 2766 531 
Q 2569 213 2275 61 
Q 1981 -91 1556 -91 
Q 1019 -91 701 211 
Q 384 513 384 1019 
Q 384 1609 779 1909 
Q 1175 2209 1959 2209 
L 2766 2209 
L 2766 2266 
Q 2766 2663 2505 2880 
Q 2244 3097 1772 3097 
Q 1472 3097 1187 3025 
Q 903 2953 641 2809 
L 641 3341 
Q 956 3463 1253 3523 
Q 1550 3584 1831 3584 
Q 2591 3584 2966 3190 
Q 3341 2797 3341 1997 
z
" transform="scale(0.015625)"/>
       <path id="DejaVuSans-63" d="M 3122 3366 
L 3122 2828 
Q 2878 2963 2633 3030 
Q 2388 3097 2138 3097 
Q 1578 3097 1268 2742 
Q 959 2388 959 1747 
Q 959 1106 1268 751 
Q 1578 397 2138 397 
Q 2388 397 2633 464 
Q 2878 531 3122 666 
L 3122 134 
Q 2881 22 2623 -34 
Q 2366 -91 2075 -91 
Q 1284 -91 818 406 
Q 353 903 353 1747 
Q 353 2603 823 3093 
Q 1294 3584 2113 3584 
Q 2378 3584 2631 3529 
Q 2884 3475 3122 3366 
z
" transform="scale(0.015625)"/>
       <path id="DejaVuSans-74" d="M 1172 4494 
L 1172 3500 
L 2356 3500 
L 2356 3053 
L 1172 3053 
L 1172 1153 
Q 1172 725 1289 603 
Q 1406 481 1766 481 
L 2356 481 
L 2356 0 
L 1766 0 
Q 1100 0 847 248 
Q 594 497 594 1153 
L 594 3053 
L 172 3053 
L 172 3500 
L 594 3500 
L 594 4494 
L 1172 4494 
z
" transform="scale(0.015625)"/>
       <path id="DejaVuSans-69" d="M 603 3500 
L 1178 3500 
L 1178 0 
L 603 0 
L 603 3500 
z
M 603 4863 
L 1178 4863 
L 1178 4134 
L 603 4134 
L 603 4863 
z
" transform="scale(0.015625)"/>
       <path id="DejaVuSans-6f" d="M 1959 3097 
Q 1497 3097 1228 2736 
Q 959 2375 959 1747 
Q 959 1119 1226 758 
Q 1494 397 1959 397 
Q 2419 397 2687 759 
Q 2956 1122 2956 1747 
Q 2956 2369 2687 2733 
Q 2419 3097 1959 3097 
z
M 1959 3584 
Q 2709 3584 3137 3096 
Q 3566 2609 3566 1747 
Q 3566 888 3137 398 
Q 2709 -91 1959 -91 
Q 1206 -91 779 398 
Q 353 888 353 1747 
Q 353 2609 779 3096 
Q 1206 3584 1959 3584 
z
" transform="scale(0.015625)"/>
       <path id="DejaVuSans-6e" d="M 3513 2113 
L 3513 0 
L 2938 0 
L 2938 2094 
Q 2938 2591 2744 2837 
Q 2550 3084 2163 3084 
Q 1697 3084 1428 2787 
Q 1159 2491 1159 1978 
L 1159 0 
L 581 0 
L 581 3500 
L 1159 3500 
L 1159 2956 
Q 1366 3272 1645 3428 
Q 1925 3584 2291 3584 
Q 2894 3584 3203 3211 
Q 3513 2838 3513 2113 
z
" transform="scale(0.015625)"/>
       <path id="DejaVuSans-66" d="M 2375 4863 
L 2375 4384 
L 1825 4384 
Q 1516 4384 1395 4259 
Q 1275 4134 1275 3809 
L 1275 3500 
L 2222 3500 
L 2222 3053 
L 1275 3053 
L 1275 0 
L 697 0 
L 697 3053 
L 147 3053 
L 147 3500 
L 697 3500 
L 697 3744 
Q 697 4328 969 4595 
Q 1241 4863 1831 4863 
L 2375 4863 
z
" transform="scale(0.015625)"/>
       <path id="DejaVuSans-78" d="M 3513 3500 
L 2247 1797 
L 3578 0 
L 2900 0 
L 1881 1375 
L 863 0 
L 184 0 
L 1544 1831 
L 300 3500 
L 978 3500 
L 1906 2253 
L 2834 3500 
L 3513 3500 
z
" transform="scale(0.015625)"/>
       <path id="DejaVuSans-6c" d="M 603 4863 
L 1178 4863 
L 1178 0 
L 603 0 
L 603 4863 
z
" transform="scale(0.015625)"/>
       <path id="DejaVuSans-53" d="M 3425 4513 
L 3425 3897 
Q 3066 4069 2747 4153 
Q 2428 4238 2131 4238 
Q 1616 4238 1336 4038 
Q 1056 3838 1056 3469 
Q 1056 3159 1242 3001 
Q 1428 2844 1947 2747 
L 2328 2669 
Q 3034 2534 3370 2195 
Q 3706 1856 3706 1288 
Q 3706 609 3251 259 
Q 2797 -91 1919 -91 
Q 1588 -91 1214 -16 
Q 841 59 441 206 
L 441 856 
Q 825 641 1194 531 
Q 1563 422 1919 422 
Q 2459 422 2753 634 
Q 3047 847 3047 1241 
Q 3047 1584 2836 1778 
Q 2625 1972 2144 2069 
L 1759 2144 
Q 1053 2284 737 2584 
Q 422 2884 422 3419 
Q 422 4038 858 4394 
Q 1294 4750 2059 4750 
Q 2388 4750 2728 4690 
Q 3069 4631 3425 4513 
z
" transform="scale(0.015625)"/>
      </defs>
      <use xlink:href="#DejaVuSans-46"/>
      <use xlink:href="#DejaVuSans-72" x="50.269531"/>
      <use xlink:href="#DejaVuSans-61" x="91.382812"/>
      <use xlink:href="#DejaVuSans-63" x="152.662109"/>
      <use xlink:href="#DejaVuSans-74" x="207.642578"/>
      <use xlink:href="#DejaVuSans-69" x="246.851562"/>
      <use xlink:href="#DejaVuSans-6f" x="274.634766"/>
      <use xlink:href="#DejaVuSans-6e" x="335.816406"/>
      <use xlink:href="#DejaVuSans-20" x="399.195312"/>
      <use xlink:href="#DejaVuSans-6f" x="430.982422"/>
      <use xlink:href="#DejaVuSans-66" x="492.164062"/>
      <use xlink:href="#DejaVuSans-20" x="527.369141"/>
      <use xlink:href="#DejaVuSans-4d" x="559.15625"/>
      <use xlink:href="#DejaVuSans-61" x="645.435547"/>
      <use xlink:href="#DejaVuSans-78" x="706.714844"/>
      <use xlink:href="#DejaVuSans-69" x="765.894531"/>
      <use xlink:href="#DejaVuSans-6d" x="793.677734"/>
      <use xlink:href="#DejaVuSans-61" x="891.089844"/>
      <use xlink:href="#DejaVuSans-6c" x="952.369141"/>
      <use xlink:href="#DejaVuSans-20" x="980.152344"/>
      <use xlink:href="#DejaVuSans-53" x="1011.939453"/>
      <use xlink:href="#DejaVuSans-69" x="1075.416016"/>
      <use xlink:href="#DejaVuSans-67" x="1103.199219"/>
      <use xlink:href="#DejaVuSans-6e" x="1166.675781"/>
      <use xlink:href="#DejaVuSans-61" x="1230.054688"/>
      <use xlink:href="#DejaVuSans-6c" x="1291.333984"/>
     </g>
    </g>
   </g>
   <g id="line2d_57">
    <path d="M 24.074856 220.052337 
L 28.079807 220.045182 
L 32.084758 220.036956 
L 36.089709 220.027528 
L 40.09466 220.016662 
L 44.099612 220.004168 
L 48.104563 219.989799 
L 52.109514 219.9733 
L 56.114465 219.954318 
L 60.119416 219.9325 
L 64.124367 219.907415 
L 68.129319 219.878578 
L 72.13427 219.845426 
L 76.139221 219.807322 
L 80.144172 219.76352 
L 84.149123 219.71317 
L 88.154074 219.655148 
L 92.159026 219.588613 
L 96.163977 219.512149 
L 100.168928 219.424398 
L 104.173879 219.323298 
L 108.17883 219.207269 
L 112.183781 219.073958 
L 116.188732 218.920785 
L 120.193684 218.744836 
L 124.198635 218.542742 
L 128.203586 218.310652 
L 132.208537 218.044163 
L 136.213488 217.738233 
L 140.218439 217.3871 
L 144.223391 216.984202 
L 148.228342 216.522055 
L 152.233293 215.992098 
L 156.238244 215.384637 
L 160.243195 214.688792 
L 164.248146 213.891844 
L 168.253098 212.9798 
L 172.258049 211.936792 
L 176.263 210.744957 
L 180.267951 209.384352 
L 184.272902 207.832698 
L 188.277853 206.065359 
L 192.282804 204.055197 
L 196.287756 201.772572 
L 200.292707 199.185439 
L 204.297658 196.259429 
L 208.302609 192.958444 
L 212.30756 189.245034 
L 216.312511 185.081475 
L 220.317463 180.430978 
L 224.322414 175.259407 
L 228.327365 169.53752 
L 232.332316 163.243789 
L 236.337267 156.367751 
L 240.342218 148.914261 
L 244.34717 140.907876 
L 248.352121 132.39743 
L 252.357072 123.461167 
L 256.362023 114.209965 
L 260.366974 104.789775 
L 264.371925 95.38158 
L 268.376877 86.196253 
L 272.381828 77.466531 
L 276.386779 69.431891 
L 280.39173 62.320114 
L 284.396681 56.324466 
L 288.401632 51.582186 
L 292.406583 48.156081 
L 296.411535 46.027075 
L 300.416486 45.1 
L 304.421437 45.221655 
L 308.426388 46.210566 
L 312.431339 47.889271 
L 316.43629 50.111048 
L 320.441242 52.772928 
L 324.446193 55.816394 
L 328.451144 59.217429 
L 332.456095 62.972389 
L 336.461046 67.085893 
L 340.465997 71.562288 
L 344.470949 76.401298 
L 348.4759 81.595289 
L 352.480851 87.128007 
L 356.485802 92.973855 
L 360.490753 99.097662 
L 364.495704 105.455043 
L 368.500655 111.993279 
L 372.505607 118.652912 
L 376.510558 125.369764 
L 380.515509 132.077397 
L 384.52046 138.709742 
L 388.525411 145.203705 
L 392.530362 151.501512 
L 396.535314 157.552644 
L 400.540265 163.315194 
L 404.545216 168.756645 
L 408.550167 173.854039 
L 412.555118 178.593626 
L 416.560069 182.970113 
L 420.565021 186.985616 
" clip-path="url(#p96698fcf60)" style="fill: none; stroke: #1f77b4; stroke-width: 2; stroke-linecap: square"/>
   </g>
   <g id="line2d_58">
    <path d="M 24.074856 220.04971 
L 28.079807 220.042181 
L 32.084758 220.033522 
L 36.089709 220.023569 
L 40.09466 220.012121 
L 44.099612 219.998967 
L 48.104563 219.983838 
L 52.109514 219.96645 
L 56.114465 219.946455 
L 60.119416 219.923466 
L 64.124367 219.897044 
L 68.129319 219.866663 
L 72.13427 219.831732 
L 76.139221 219.791588 
L 80.144172 219.745439 
L 84.149123 219.692381 
L 88.154074 219.631405 
L 92.159026 219.561309 
L 96.163977 219.480743 
L 100.168928 219.388158 
L 104.173879 219.281738 
L 108.17883 219.159446 
L 112.183781 219.018921 
L 116.188732 218.857459 
L 120.193684 218.671955 
L 124.198635 218.458855 
L 128.203586 218.214085 
L 132.208537 217.933006 
L 136.213488 217.610233 
L 140.218439 217.239676 
L 144.223391 216.814369 
L 148.228342 216.326346 
L 152.233293 215.766511 
L 156.238244 215.124558 
L 160.243195 214.38872 
L 164.248146 213.545649 
L 168.253098 212.580235 
L 172.258049 211.475374 
L 176.263 210.211868 
L 180.267951 208.76812 
L 184.272902 207.119802 
L 188.277853 205.240175 
L 192.282804 203.099411 
L 196.287756 200.664726 
L 200.292707 197.900362 
L 204.297658 194.767922 
L 208.302609 191.226249 
L 212.30756 187.23245 
L 216.312511 182.742465 
L 220.317463 177.71264 
L 224.322414 172.101295 
L 228.327365 165.871689 
L 232.332316 158.994801 
L 236.337267 151.454359 
L 240.342218 143.251605 
L 244.34717 134.411955 
L 248.352121 124.992462 
L 252.357072 115.089685 
L 256.362023 104.847958 
L 260.366974 94.466064 
L 264.371925 84.20178 
L 268.376877 74.37139 
L 272.381828 65.342081 
L 276.386779 57.514932 
L 280.39173 51.296491 
L 284.396681 47.060064 
L 288.401632 45.1 
L 292.406583 45.586131 
L 296.411535 48.529609 
L 300.416486 53.770466 
L 304.421437 60.994683 
L 308.426388 69.778536 
L 312.431339 79.650317 
L 316.43629 90.151572 
L 320.441242 100.882454 
L 324.446193 111.52365 
L 328.451144 121.837627 
L 332.456095 131.657974 
L 336.461046 140.875353 
L 340.465997 149.425102 
L 344.470949 157.277361 
L 348.4759 164.428987 
L 352.480851 170.896757 
L 356.485802 176.711465 
L 360.490753 181.913039 
L 364.495704 186.546654 
L 368.500655 190.659771 
L 372.505607 194.300003 
L 376.510558 197.513619 
L 380.515509 200.34458 
L 384.52046 202.833942 
L 388.525411 205.019559 
L 392.530362 206.935978 
L 396.535314 208.614474 
L 400.540265 210.083175 
L 404.545216 211.367246 
L 408.550167 212.489105 
L 412.555118 213.468648 
L 416.560069 214.323481 
L 420.565021 215.069145 
" clip-path="url(#p96698fcf60)" style="fill: none; stroke-dasharray: 7.4,3.2; stroke-dashoffset: 0; stroke: #ff7f0e; stroke-width: 2"/>
   </g>
   <g id="LineCollection_1">
    <path clip-path="url(#p96698fcf60)" style="fill: none; stroke: #008000; stroke-width: 1.5"/>
    <path d="M 224.852762 188.07059 
L 224.852762 170.081932 
" clip-path="url(#p96698fcf60)" style="fill: none; stroke: #008000; stroke-width: 1.5"/>
    <path d="M 251.149312 122.58351 
L 251.149312 115.094235 
" clip-path="url(#p96698fcf60)" style="fill: none; stroke: #008000; stroke-width: 1.5"/>
    <path d="M 277.445862 84.380584 
L 277.445862 59.825351 
" clip-path="url(#p96698fcf60)" style="fill: none; stroke: #008000; stroke-width: 1.5"/>
    <path d="M 303.742412 56.895952 
L 303.742412 33.304048 
" clip-path="url(#p96698fcf60)" style="fill: none; stroke: #008000; stroke-width: 1.5"/>
    <path d="M 330.038962 66.940015 
L 330.038962 39.877196 
" clip-path="url(#p96698fcf60)" style="fill: none; stroke: #008000; stroke-width: 1.5"/>
    <path d="M 356.335512 94.202527 
L 356.335512 87.392131 
" clip-path="url(#p96698fcf60)" style="fill: none; stroke: #008000; stroke-width: 1.5"/>
    <path d="M 382.632062 145.283532 
L 382.632062 124.590058 
" clip-path="url(#p96698fcf60)" style="fill: none; stroke: #008000; stroke-width: 1.5"/>
    <path d="M 408.928612 183.82023 
L 408.928612 172.255141 
" clip-path="url(#p96698fcf60)" style="fill: none; stroke: #008000; stroke-width: 1.5"/>
   </g>
   <g id="line2d_59">
    <defs>
     <path id="m98073294a6" d="M -3 3 
L 3 -3 
M -3 -3 
L 3 3 
" style="stroke: #008000"/>
    </defs>
    <g clip-path="url(#p96698fcf60)">
     <use xlink:href="#m98073294a6" x="-1" y="179.216722" style="fill: #008000; stroke: #008000"/>
     <use xlink:href="#m98073294a6" x="224.852762" y="179.076261" style="fill: #008000; stroke: #008000"/>
     <use xlink:href="#m98073294a6" x="251.149312" y="118.838872" style="fill: #008000; stroke: #008000"/>
     <use xlink:href="#m98073294a6" x="277.445862" y="72.102967" style="fill: #008000; stroke: #008000"/>
     <use xlink:href="#m98073294a6" x="303.742412" y="45.1" style="fill: #008000; stroke: #008000"/>
     <use xlink:href="#m98073294a6" x="330.038962" y="53.408605" style="fill: #008000; stroke: #008000"/>
     <use xlink:href="#m98073294a6" x="356.335512" y="90.797329" style="fill: #008000; stroke: #008000"/>
     <use xlink:href="#m98073294a6" x="382.632062" y="134.936795" style="fill: #008000; stroke: #008000"/>
     <use xlink:href="#m98073294a6" x="408.928612" y="178.037685" style="fill: #008000; stroke: #008000"/>
    </g>
   </g>
   <g id="patch_3">
    <path d="M 63.86 237.6 
L 63.86 27.6 
" style="fill: none; stroke: #000000; stroke-width: 0.8; stroke-linejoin: miter; stroke-linecap: square"/>
   </g>
   <g id="patch_4">
    <path d="M 418.585 237.6 
L 418.585 27.6 
" style="fill: none; stroke: #000000; stroke-width: 0.8; stroke-linejoin: miter; stroke-linecap: square"/>
   </g>
   <g id="patch_5">
    <path d="M 63.86 237.6 
L 418.585 237.6 
" style="fill: none; stroke: #000000; stroke-width: 0.8; stroke-linejoin: miter; stroke-linecap: square"/>
   </g>
   <g id="patch_6">
    <path d="M 63.86 27.6 
L 418.585 27.6 
" style="fill: none; stroke: #000000; stroke-width: 0.8; stroke-linejoin: miter; stroke-linecap: square"/>
   </g>
   <g id="text_15">
    <!-- CAR T Cell with FMC63 -->
    <g transform="translate(161.712344 21.6)scale(0.14 -0.14)">
     <defs>
      <path id="DejaVuSans-41" d="M 2188 4044 
L 1331 1722 
L 3047 1722 
L 2188 4044 
z
M 1831 4666 
L 2547 4666 
L 4325 0 
L 3669 0 
L 3244 1197 
L 1141 1197 
L 716 0 
L 50 0 
L 1831 4666 
z
" transform="scale(0.015625)"/>
      <path id="DejaVuSans-52" d="M 2841 2188 
Q 3044 2119 3236 1894 
Q 3428 1669 3622 1275 
L 4263 0 
L 3584 0 
L 2988 1197 
Q 2756 1666 2539 1819 
Q 2322 1972 1947 1972 
L 1259 1972 
L 1259 0 
L 628 0 
L 628 4666 
L 2053 4666 
Q 2853 4666 3247 4331 
Q 3641 3997 3641 3322 
Q 3641 2881 3436 2590 
Q 3231 2300 2841 2188 
z
M 1259 4147 
L 1259 2491 
L 2053 2491 
Q 2509 2491 2742 2702 
Q 2975 2913 2975 3322 
Q 2975 3731 2742 3939 
Q 2509 4147 2053 4147 
L 1259 4147 
z
" transform="scale(0.015625)"/>
      <path id="DejaVuSans-54" d="M -19 4666 
L 3928 4666 
L 3928 4134 
L 2272 4134 
L 2272 0 
L 1638 0 
L 1638 4134 
L -19 4134 
L -19 4666 
z
" transform="scale(0.015625)"/>
      <path id="DejaVuSans-65" d="M 3597 1894 
L 3597 1613 
L 953 1613 
Q 991 1019 1311 708 
Q 1631 397 2203 397 
Q 2534 397 2845 478 
Q 3156 559 3463 722 
L 3463 178 
Q 3153 47 2828 -22 
Q 2503 -91 2169 -91 
Q 1331 -91 842 396 
Q 353 884 353 1716 
Q 353 2575 817 3079 
Q 1281 3584 2069 3584 
Q 2775 3584 3186 3129 
Q 3597 2675 3597 1894 
z
M 3022 2063 
Q 3016 2534 2758 2815 
Q 2500 3097 2075 3097 
Q 1594 3097 1305 2825 
Q 1016 2553 972 2059 
L 3022 2063 
z
" transform="scale(0.015625)"/>
      <path id="DejaVuSans-77" d="M 269 3500 
L 844 3500 
L 1563 769 
L 2278 3500 
L 2956 3500 
L 3675 769 
L 4391 3500 
L 4966 3500 
L 4050 0 
L 3372 0 
L 2619 2869 
L 1863 0 
L 1184 0 
L 269 3500 
z
" transform="scale(0.015625)"/>
      <path id="DejaVuSans-68" d="M 3513 2113 
L 3513 0 
L 2938 0 
L 2938 2094 
Q 2938 2591 2744 2837 
Q 2550 3084 2163 3084 
Q 1697 3084 1428 2787 
Q 1159 2491 1159 1978 
L 1159 0 
L 581 0 
L 581 4863 
L 1159 4863 
L 1159 2956 
Q 1366 3272 1645 3428 
Q 1925 3584 2291 3584 
Q 2894 3584 3203 3211 
Q 3513 2838 3513 2113 
z
" transform="scale(0.015625)"/>
     </defs>
     <use xlink:href="#DejaVuSans-43"/>
     <use xlink:href="#DejaVuSans-41" x="69.824219"/>
     <use xlink:href="#DejaVuSans-52" x="138.232422"/>
     <use xlink:href="#DejaVuSans-20" x="207.714844"/>
     <use xlink:href="#DejaVuSans-54" x="239.501953"/>
     <use xlink:href="#DejaVuSans-20" x="300.585938"/>
     <use xlink:href="#DejaVuSans-43" x="332.373047"/>
     <use xlink:href="#DejaVuSans-65" x="402.197266"/>
     <use xlink:href="#DejaVuSans-6c" x="463.720703"/>
     <use xlink:href="#DejaVuSans-6c" x="491.503906"/>
     <use xlink:href="#DejaVuSans-20" x="519.287109"/>
     <use xlink:href="#DejaVuSans-77" x="551.074219"/>
     <use xlink:href="#DejaVuSans-69" x="632.861328"/>
     <use xlink:href="#DejaVuSans-74" x="660.644531"/>
     <use xlink:href="#DejaVuSans-68" x="699.853516"/>
     <use xlink:href="#DejaVuSans-20" x="763.232422"/>
     <use xlink:href="#DejaVuSans-46" x="795.019531"/>
     <use xlink:href="#DejaVuSans-4d" x="852.539062"/>
     <use xlink:href="#DejaVuSans-43" x="938.818359"/>
     <use xlink:href="#DejaVuSans-36" x="1008.642578"/>
     <use xlink:href="#DejaVuSans-33" x="1072.265625"/>
    </g>
   </g>
   <g id="legend_1">
    <g id="patch_7">
     <path d="M 75.06 89.185 
L 202.785 89.185 
Q 205.985 89.185 205.985 85.985 
L 205.985 40.615 
Q 205.985 37.415 202.785 37.415 
L 75.06 37.415 
Q 71.86 37.415 71.86 40.615 
L 71.86 85.985 
Q 71.86 89.185 75.06 89.185 
z
" style="fill: #ffffff; opacity: 0.8; stroke: #cccccc; stroke-linejoin: miter"/>
    </g>
    <g id="line2d_60">
     <path d="M 78.26 50.3725 
L 94.26 50.3725 
L 110.26 50.3725 
" style="fill: none; stroke: #1f77b4; stroke-width: 2; stroke-linecap: square"/>
    </g>
    <g id="text_16">
     <!-- SSE: 0.01 -->
     <g transform="translate(123.06 55.9725)scale(0.16 -0.16)">
      <defs>
       <path id="DejaVuSans-45" d="M 628 4666 
L 3578 4666 
L 3578 4134 
L 1259 4134 
L 1259 2753 
L 3481 2753 
L 3481 2222 
L 1259 2222 
L 1259 531 
L 3634 531 
L 3634 0 
L 628 0 
L 628 4666 
z
" transform="scale(0.015625)"/>
       <path id="DejaVuSans-3a" d="M 750 794 
L 1409 794 
L 1409 0 
L 750 0 
L 750 794 
z
M 750 3309 
L 1409 3309 
L 1409 2516 
L 750 2516 
L 750 3309 
z
" transform="scale(0.015625)"/>
      </defs>
      <use xlink:href="#DejaVuSans-53"/>
      <use xlink:href="#DejaVuSans-53" x="63.476562"/>
      <use xlink:href="#DejaVuSans-45" x="126.953125"/>
      <use xlink:href="#DejaVuSans-3a" x="190.136719"/>
      <use xlink:href="#DejaVuSans-20" x="223.828125"/>
      <use xlink:href="#DejaVuSans-30" x="255.615234"/>
      <use xlink:href="#DejaVuSans-2e" x="319.238281"/>
      <use xlink:href="#DejaVuSans-30" x="351.025391"/>
      <use xlink:href="#DejaVuSans-31" x="414.648438"/>
     </g>
    </g>
    <g id="line2d_61">
     <path d="M 78.26 73.8575 
L 94.26 73.8575 
L 110.26 73.8575 
" style="fill: none; stroke-dasharray: 7.4,3.2; stroke-dashoffset: 0; stroke: #ff7f0e; stroke-width: 2"/>
    </g>
    <g id="text_17">
     <!-- SSE: 0.61 -->
     <g transform="translate(123.06 79.4575)scale(0.16 -0.16)">
      <use xlink:href="#DejaVuSans-53"/>
      <use xlink:href="#DejaVuSans-53" x="63.476562"/>
      <use xlink:href="#DejaVuSans-45" x="126.953125"/>
      <use xlink:href="#DejaVuSans-3a" x="190.136719"/>
      <use xlink:href="#DejaVuSans-20" x="223.828125"/>
      <use xlink:href="#DejaVuSans-30" x="255.615234"/>
      <use xlink:href="#DejaVuSans-2e" x="319.238281"/>
      <use xlink:href="#DejaVuSans-36" x="351.025391"/>
      <use xlink:href="#DejaVuSans-31" x="414.648438"/>
     </g>
    </g>
   </g>
   <g id="legend_2">
    <g id="patch_8">
     <path d="M 425.585 135.117188 
L 562.988125 135.117188 
Q 564.988125 135.117188 564.988125 133.117188 
L 564.988125 90.082813 
Q 564.988125 88.082813 562.988125 88.082813 
L 425.585 88.082813 
Q 423.585 88.082813 423.585 90.082813 
L 423.585 133.117188 
Q 423.585 135.117188 425.585 135.117188 
z
" style="fill: #ffffff; opacity: 0.8; stroke: #cccccc; stroke-linejoin: miter"/>
    </g>
    <g id="line2d_62">
     <path d="M 427.585 96.18125 
L 437.585 96.18125 
L 447.585 96.18125 
" style="fill: none; stroke: #1f77b4; stroke-width: 2; stroke-linecap: square"/>
    </g>
    <g id="text_18">
     <!-- Fitted Simulation -->
     <g transform="translate(455.585 99.68125)scale(0.1 -0.1)">
      <defs>
       <path id="DejaVuSans-64" d="M 2906 2969 
L 2906 4863 
L 3481 4863 
L 3481 0 
L 2906 0 
L 2906 525 
Q 2725 213 2448 61 
Q 2172 -91 1784 -91 
Q 1150 -91 751 415 
Q 353 922 353 1747 
Q 353 2572 751 3078 
Q 1150 3584 1784 3584 
Q 2172 3584 2448 3432 
Q 2725 3281 2906 2969 
z
M 947 1747 
Q 947 1113 1208 752 
Q 1469 391 1925 391 
Q 2381 391 2643 752 
Q 2906 1113 2906 1747 
Q 2906 2381 2643 2742 
Q 2381 3103 1925 3103 
Q 1469 3103 1208 2742 
Q 947 2381 947 1747 
z
" transform="scale(0.015625)"/>
      </defs>
      <use xlink:href="#DejaVuSans-46"/>
      <use xlink:href="#DejaVuSans-69" x="50.269531"/>
      <use xlink:href="#DejaVuSans-74" x="78.052734"/>
      <use xlink:href="#DejaVuSans-74" x="117.261719"/>
      <use xlink:href="#DejaVuSans-65" x="156.470703"/>
      <use xlink:href="#DejaVuSans-64" x="217.994141"/>
      <use xlink:href="#DejaVuSans-20" x="281.470703"/>
      <use xlink:href="#DejaVuSans-53" x="313.257812"/>
      <use xlink:href="#DejaVuSans-69" x="376.734375"/>
      <use xlink:href="#DejaVuSans-6d" x="404.517578"/>
      <use xlink:href="#DejaVuSans-75" x="501.929688"/>
      <use xlink:href="#DejaVuSans-6c" x="565.308594"/>
      <use xlink:href="#DejaVuSans-61" x="593.091797"/>
      <use xlink:href="#DejaVuSans-74" x="654.371094"/>
      <use xlink:href="#DejaVuSans-69" x="693.580078"/>
      <use xlink:href="#DejaVuSans-6f" x="721.363281"/>
      <use xlink:href="#DejaVuSans-6e" x="782.544922"/>
     </g>
    </g>
    <g id="line2d_63">
     <path d="M 427.585 110.859375 
L 437.585 110.859375 
L 447.585 110.859375 
" style="fill: none; stroke-dasharray: 7.4,3.2; stroke-dashoffset: 0; stroke: #ff7f0e; stroke-width: 2"/>
    </g>
    <g id="text_19">
     <!-- Literature Simulation -->
     <g transform="translate(455.585 114.359375)scale(0.1 -0.1)">
      <use xlink:href="#DejaVuSans-4c"/>
      <use xlink:href="#DejaVuSans-69" x="55.712891"/>
      <use xlink:href="#DejaVuSans-74" x="83.496094"/>
      <use xlink:href="#DejaVuSans-65" x="122.705078"/>
      <use xlink:href="#DejaVuSans-72" x="184.228516"/>
      <use xlink:href="#DejaVuSans-61" x="225.341797"/>
      <use xlink:href="#DejaVuSans-74" x="286.621094"/>
      <use xlink:href="#DejaVuSans-75" x="325.830078"/>
      <use xlink:href="#DejaVuSans-72" x="389.208984"/>
      <use xlink:href="#DejaVuSans-65" x="428.072266"/>
      <use xlink:href="#DejaVuSans-20" x="489.595703"/>
      <use xlink:href="#DejaVuSans-53" x="521.382812"/>
      <use xlink:href="#DejaVuSans-69" x="584.859375"/>
      <use xlink:href="#DejaVuSans-6d" x="612.642578"/>
      <use xlink:href="#DejaVuSans-75" x="710.054688"/>
      <use xlink:href="#DejaVuSans-6c" x="773.433594"/>
      <use xlink:href="#DejaVuSans-61" x="801.216797"/>
      <use xlink:href="#DejaVuSans-74" x="862.496094"/>
      <use xlink:href="#DejaVuSans-69" x="901.705078"/>
      <use xlink:href="#DejaVuSans-6f" x="929.488281"/>
      <use xlink:href="#DejaVuSans-6e" x="990.669922"/>
     </g>
    </g>
    <g id="LineCollection_2">
     <path d="M 437.585 130.5375 
L 437.585 120.5375 
" style="fill: none; stroke: #008000; stroke-width: 1.5"/>
    </g>
    <g id="line2d_64"/>
    <g id="line2d_65">
     <g>
      <use xlink:href="#m98073294a6" x="437.585" y="125.5375" style="fill: #008000; stroke: #008000"/>
     </g>
    </g>
    <g id="text_20">
     <!-- Experimental Data -->
     <g transform="translate(455.585 129.0375)scale(0.1 -0.1)">
      <defs>
       <path id="DejaVuSans-70" d="M 1159 525 
L 1159 -1331 
L 581 -1331 
L 581 3500 
L 1159 3500 
L 1159 2969 
Q 1341 3281 1617 3432 
Q 1894 3584 2278 3584 
Q 2916 3584 3314 3078 
Q 3713 2572 3713 1747 
Q 3713 922 3314 415 
Q 2916 -91 2278 -91 
Q 1894 -91 1617 61 
Q 1341 213 1159 525 
z
M 3116 1747 
Q 3116 2381 2855 2742 
Q 2594 3103 2138 3103 
Q 1681 3103 1420 2742 
Q 1159 2381 1159 1747 
Q 1159 1113 1420 752 
Q 1681 391 2138 391 
Q 2594 391 2855 752 
Q 3116 1113 3116 1747 
z
" transform="scale(0.015625)"/>
       <path id="DejaVuSans-44" d="M 1259 4147 
L 1259 519 
L 2022 519 
Q 2988 519 3436 956 
Q 3884 1394 3884 2338 
Q 3884 3275 3436 3711 
Q 2988 4147 2022 4147 
L 1259 4147 
z
M 628 4666 
L 1925 4666 
Q 3281 4666 3915 4102 
Q 4550 3538 4550 2338 
Q 4550 1131 3912 565 
Q 3275 0 1925 0 
L 628 0 
L 628 4666 
z
" transform="scale(0.015625)"/>
      </defs>
      <use xlink:href="#DejaVuSans-45"/>
      <use xlink:href="#DejaVuSans-78" x="63.183594"/>
      <use xlink:href="#DejaVuSans-70" x="122.363281"/>
      <use xlink:href="#DejaVuSans-65" x="185.839844"/>
      <use xlink:href="#DejaVuSans-72" x="247.363281"/>
      <use xlink:href="#DejaVuSans-69" x="288.476562"/>
      <use xlink:href="#DejaVuSans-6d" x="316.259766"/>
      <use xlink:href="#DejaVuSans-65" x="413.671875"/>
      <use xlink:href="#DejaVuSans-6e" x="475.195312"/>
      <use xlink:href="#DejaVuSans-74" x="538.574219"/>
      <use xlink:href="#DejaVuSans-61" x="577.783203"/>
      <use xlink:href="#DejaVuSans-6c" x="639.0625"/>
      <use xlink:href="#DejaVuSans-20" x="666.845703"/>
      <use xlink:href="#DejaVuSans-44" x="698.632812"/>
      <use xlink:href="#DejaVuSans-61" x="775.634766"/>
      <use xlink:href="#DejaVuSans-74" x="836.914062"/>
      <use xlink:href="#DejaVuSans-61" x="876.123047"/>
     </g>
    </g>
   </g>
  </g>
 </g>
 <defs>
  <clipPath id="p96698fcf60">
   <rect x="63.86" y="27.6" width="354.725" height="210"/>
  </clipPath>
 </defs>
</svg>
